<svg xmlns="http://www.w3.org/2000/svg" viewBox="0 0 512 512">
  <defs>
    <radialGradient id="bg" cx="50%" cy="50%">
      <stop offset="0%" style="stop-color:#1a1a1a"/>
      <stop offset="100%" style="stop-color:#0a0a0a"/>
    </radialGradient>
  </defs>
  
  <!-- Background -->
  <rect width="512" height="512" fill="url(#bg)" rx="115"/>
  
  <!-- Psychedelic rainbow spiral -->
  <g transform="translate(256, 256)">
    <!-- Outer spirals -->
    <path d="M 0,-180 Q 180,-180 180,0 Q 180,180 0,180 Q -180,180 -180,0 Q -180,-180 0,-180" 
          fill="none" stroke="#FF0080" stroke-width="18" opacity="0.9"/>
    
    <path d="M 0,-150 Q 150,-150 150,0 Q 150,150 0,150 Q -150,150 -150,0 Q -150,-150 0,-150" 
          fill="none" stroke="#FF4500" stroke-width="16" opacity="0.9"/>
    
    <path d="M 0,-120 Q 120,-120 120,0 Q 120,120 0,120 Q -120,120 -120,0 Q -120,-120 0,-120" 
          fill="none" stroke="#FFD700" stroke-width="14" opacity="0.9"/>
    
    <path d="M 0,-90 Q 90,-90 90,0 Q 90,90 0,90 Q -90,90 -90,0 Q -90,-90 0,-90" 
          fill="none" stroke="#00FF00" stroke-width="12" opacity="0.9"/>
    
    <path d="M 0,-60 Q 60,-60 60,0 Q 60,60 0,60 Q -60,60 -60,0 Q -60,-60 0,-60" 
          fill="none" stroke="#00FFFF" stroke-width="10" opacity="0.9"/>
    
    <path d="M 0,-30 Q 30,-30 30,0 Q 30,30 0,30 Q -30,30 -30,0 Q -30,-30 0,-30" 
          fill="none" stroke="#0080FF" stroke-width="8" opacity="0.9"/>
    
    <!-- Center glow -->
    <circle cx="0" cy="0" r="20" fill="#FF00FF" opacity="0.8"/>
    <circle cx="0" cy="0" r="12" fill="#FFFFFF" opacity="0.9"/>
  </g>
  
  <!-- Decorative dots for extra psychedelic feel -->
  <circle cx="128" cy="128" r="8" fill="#FF0080" opacity="0.6"/>
  <circle cx="384" cy="128" r="8" fill="#00FFFF" opacity="0.6"/>
  <circle cx="128" cy="384" r="8" fill="#FFD700" opacity="0.6"/>
  <circle cx="384" cy="384" r="8" fill="#00FF00" opacity="0.6"/>
</svg>